# xmcd CD database file
#
# Track frame offsets:
#	150
#	17722
#	35842
#	47500
#	74417
#
# Disc length: 1197 seconds
#
# Revision: 6
# Processed by: cddbd v1.5.2PL0 Copyright (c) Steve Scherf et al.
# Submitted via: CDex 1.77
#
DISCID=3f04ab05
DTITLE=Ryan Adams - Gold (Side 4)
DYEAR=2001
DGENRE=Rock
TTITLE0=Rosalie Come And Go
TTITLE1=The Fools We Are As Men
TTITLE2=Sweet Black Magic
TTITLE3=The Bar Is A Beautiful Place
TTITLE4=Cannonball Days
EXTD=YEAR: 2001
EXTT0=
EXTT1=
EXTT2=
EXTT3=
EXTT4=
PLAYORDER=
